<?xml version="1.0" encoding="utf-8"?>
<!-- Generator: Adobe Illustrator 27.2.0, SVG Export Plug-In . SVG Version: 6.00 Build 0)  -->
<svg version="1.1" id="Capa_1" xmlns="http://www.w3.org/2000/svg" xmlns:xlink="http://www.w3.org/1999/xlink" x="0px" y="0px"
	 viewBox="0 0 1366 768" style="enable-background:new 0 0 1366 768;" xml:space="preserve">
<style type="text/css">
	.st0{fill:#FFFFFF;}
	.st1{fill:#00A0DF;}
	.st2{fill:#0083C1;}
	.st3{fill:#E1251B;}
	.st4{fill:#1A428A;}
</style>
<g>
	<g>
		<path class="st0" d="M424.7,647.7c-1.4,1.7-2.9,3-4.5,3.9c-1.5,0.8-3.1,1.2-4.9,1.2c-1.7,0-3.2-0.3-4.5-0.8
			c-1.3-0.5-2.3-1.2-3.2-2.2c-0.9-1-1.7-2.2-2.2-3.7c-0.6-1.5-0.8-3.2-0.8-5.1c0-1.9,0.3-3.6,0.9-5.1c0.5-1.4,1.3-2.6,2.2-3.7l0,0
			c0.9-0.9,1.9-1.6,3.1-2.1c1.4-0.5,2.9-0.8,4.5-0.8c1.9,0,3.5,0.4,4.9,1.2c1.6,0.9,3.1,2.2,4.5,3.9l3.5,4.2l17.7-16.6l-2.9-3.7
			c-3.3-4.3-7.4-7.6-12.3-9.8c-4.8-2.2-10.3-3.3-16.3-3.3c-5.1,0-10,0.9-14.4,2.6c-4.5,1.7-8.4,4.3-11.7,7.5
			c-3.3,3.2-5.9,7.1-7.7,11.4c-1.8,4.4-2.8,9.2-2.8,14.4c0,5.2,0.9,10,2.8,14.4c1.8,4.4,4.4,8.2,7.7,11.4c3.3,3.2,7.2,5.7,11.7,7.5
			c4.4,1.7,9.3,2.6,14.4,2.6c6,0,11.5-1.1,16.3-3.4c4.9-2.3,9-5.6,12.3-9.7l2.9-3.7l-17.7-16.6L424.7,647.7z M431.7,660.8
			c-1.6,1.3-3.3,2.4-5.3,3.4c-3.4,1.6-7.5,2.4-12,2.4c-3.8,0-7.4-0.6-10.6-1.9c-3.2-1.2-5.9-3-8.2-5.2c-2.3-2.3-4.1-5-5.4-8.1
			c-1.3-3.1-2-6.6-2-10.4c0-3.8,0.7-7.3,2-10.4c1.3-3.1,3.1-5.8,5.4-8.1c2.3-2.2,5-4,8.2-5.2c3.2-1.3,6.8-1.9,10.7-1.9
			c4.5,0,8.5,0.8,12,2.4c2,0.9,3.7,2,5.3,3.4l-2.9,2.7c-1.2-1-2.4-1.8-3.7-2.5c-3-1.6-6.3-2.4-9.8-2.4c-3,0-5.8,0.5-8.4,1.6
			c-2.7,1.1-5,2.7-6.8,4.7c-1.9,2-3.3,4.4-4.3,7c-1,2.7-1.5,5.6-1.5,8.7c0,3.2,0.5,6.1,1.5,8.7c1,2.7,2.5,5.1,4.3,7
			c1.9,2,4.2,3.6,6.9,4.7c2.6,1,5.4,1.6,8.4,1.6c3.6,0,6.9-0.8,9.8-2.4c1.3-0.7,2.6-1.5,3.8-2.5L431.7,660.8z"/>
		<path class="st0" d="M496.6,625.2c-1.9-2-4.1-3.6-6.7-4.7c-2.5-1.1-5.2-1.6-8.1-1.6c-2.9,0-5.6,0.5-8,1.6
			c-2.5,1.1-4.8,2.6-6.7,4.7c-1.8,1.9-3.3,4.3-4.3,7c-1,2.6-1.5,5.6-1.5,8.8c0,3.2,0.5,6.1,1.5,8.7c1,2.7,2.5,5.1,4.3,7.1
			c1.9,2,4.1,3.6,6.7,4.6c2.5,1.1,5.2,1.6,8.1,1.6c2.9,0,5.6-0.5,8.1-1.6c2.6-1.1,4.8-2.6,6.7-4.7c1.8-2,3.3-4.3,4.3-7.1
			c1-2.6,1.5-5.6,1.5-8.7c0-3.2-0.5-6.2-1.5-8.8C499.8,629.5,498.4,627.1,496.6,625.2z M491.2,646.1L491.2,646.1
			c-0.6,1.5-1.3,2.7-2.2,3.7c-0.9,1-1.9,1.7-3.1,2.2c-1.2,0.5-2.6,0.8-4.1,0.8c-1.5,0-2.8-0.3-4.1-0.8c-1.2-0.5-2.2-1.2-3.1-2.2
			c-0.9-1-1.7-2.2-2.2-3.7c-0.6-1.5-0.8-3.2-0.8-5.1c0-1.9,0.3-3.7,0.8-5.1c0.6-1.5,1.3-2.7,2.2-3.7c0.9-1,1.9-1.7,3.1-2.2
			c1.2-0.5,2.6-0.8,4.1-0.8c1.5,0,2.8,0.3,4.1,0.8c1.2,0.5,2.2,1.2,3.1,2.2c0.9,1,1.7,2.2,2.2,3.7c0.6,1.4,0.8,3.2,0.8,5.1
			C492.1,642.9,491.8,644.6,491.2,646.1z"/>
		<path class="st0" d="M508.1,615.3L508.1,615.3c-3.3-3.3-7.2-5.8-11.7-7.6c-4.4-1.8-9.3-2.6-14.6-2.6c-5.2,0-10.1,0.9-14.5,2.6
			c-4.5,1.8-8.5,4.3-11.8,7.6c-3.3,3.2-6,7.1-7.8,11.4c-1.8,4.3-2.8,9.1-2.8,14.3c0,5.1,0.9,9.9,2.8,14.3c1.8,4.3,4.5,8.2,7.8,11.4
			c3.3,3.3,7.3,5.8,11.8,7.6c4.4,1.7,9.3,2.6,14.5,2.6c5.3,0,10.2-0.9,14.6-2.6c4.4-1.8,8.4-4.3,11.7-7.5c3.3-3.2,5.9-7.1,7.8-11.4
			c1.9-4.4,2.8-9.2,2.8-14.3c0-5.1-0.9-9.9-2.8-14.3C514,622.4,511.4,618.6,508.1,615.3z M506.4,651.2c-1.3,3.1-3.2,5.8-5.5,8.1
			c-2.3,2.3-5.1,4.1-8.3,5.3c-3.2,1.3-6.8,1.9-10.8,1.9c-3.9,0-7.5-0.6-10.7-1.9c-3.2-1.3-6-3.1-8.4-5.4c-2.4-2.3-4.2-5-5.5-8.1
			c-1.3-3.1-2-6.4-2-10.2c0-3.7,0.7-7.2,2-10.2c1.3-3.1,3.1-5.8,5.5-8.1c2.4-2.3,5.1-4.1,8.4-5.3c3.2-1.3,6.8-1.9,10.7-1.9
			c3.9,0,7.6,0.6,10.8,1.9c3.2,1.3,6,3.1,8.3,5.3c2.3,2.3,4.2,5.1,5.5,8.1c1.3,3.1,2,6.5,2,10.2
			C508.4,644.7,507.7,648.1,506.4,651.2z"/>
		<path class="st0" d="M563.5,628.2l-17.6-22H525v69.4h26.1v-22l17.6,22h20.9v-69.4h-26.1V628.2z M573.8,616.6h5.5v48.8h-5.7
			l-32.8-41v41h-5.5v-48.8h5.7l32.8,41V616.6z"/>
		<path class="st0" d="M630.8,675.7h26.4v-20.3h25.2v-23.2h-25.2v-2.7h28.6v-23.2h-55V675.7z M641.1,616.6h34.5v2.6h-28.6v23.3h25.2
			v2.6h-25.2v20.3h-5.8V616.6z"/>
		<path class="st0" d="M728.5,643.7c0,5.1-1.1,7-1.6,7.5c-0.6,0.7-1.6,1.5-4,1.5c-2.4,0-3.5-0.8-4.1-1.5c-0.5-0.6-1.6-2.4-1.6-7.5
			v-37.4h-26.4v37.9c0,10.1,2.9,18.2,8.6,24c5.7,5.8,13.6,8.7,23.4,8.7c9.8,0,17.7-2.9,23.4-8.7c5.7-5.8,8.6-13.8,8.6-24v-37.9
			h-26.2V643.7z M734.7,657.9c2.8-3.2,4.1-7.9,4.1-14.3v-27.1h5.6v27.6c0,7.4-1.8,12.9-5.6,16.7c-3.8,3.8-9,5.6-16.1,5.6
			c-7.1,0-12.3-1.8-16.1-5.7c-3.8-3.8-5.6-9.3-5.6-16.7v-27.6h5.8v27.1c0,6.4,1.4,11.1,4.2,14.3c2.9,3.3,7,5,11.8,5
			C727.7,663,731.8,661.3,734.7,657.9z"/>
		<path class="st0" d="M757.2,629.8h17.5v45.8h26.4v-45.8h17.5v-23.6h-61.4V629.8z M767.5,616.6h40.8v3h-17.5v45.8H785v-45.8h-17.5
			V616.6z"/>
		<path class="st0" d="M858.9,643.7c0,5.1-1.1,7-1.6,7.5c-0.6,0.7-1.6,1.5-4,1.5c-2.4,0-3.5-0.8-4.1-1.5c-0.5-0.6-1.6-2.4-1.6-7.5
			v-37.4h-26.4v37.9c0,10.1,2.9,18.2,8.6,24c5.7,5.8,13.6,8.7,23.4,8.7c9.8,0,17.7-2.9,23.4-8.7c5.7-5.8,8.6-13.8,8.6-24v-37.9
			h-26.2V643.7z M865,657.9c2.8-3.2,4.1-7.9,4.1-14.3v-27.1h5.6v27.6c0,7.4-1.8,12.9-5.6,16.7c-3.8,3.8-9,5.6-16.1,5.6
			c-7.1,0-12.3-1.8-16.1-5.7c-3.8-3.8-5.6-9.3-5.6-16.7v-27.6h5.8v27.1c0,6.4,1.4,11.1,4.2,14.3c2.9,3.3,7,5,11.8,5
			C858.1,663,862.2,661.3,865,657.9z"/>
		<path class="st0" d="M951.6,647.6L951.6,647.6c2.6-4.1,3.9-8.9,3.9-14.3c0-5.5-1.3-10.3-3.9-14.4c-2.6-4.1-6.3-7.3-11-9.5
			c-4.4-2-9.7-3.1-15.6-3.1h-31.2v69.4h26.4V660h0.9l10.3,15.7h29.6l-14.7-22.2C948.5,651.8,950.2,649.8,951.6,647.6z M943,642
			c-1.4,2.2-3.4,4-6,5.3l-5.2,2.6l10.3,15.5H937l-10.3-15.7H910v15.7h-5.8v-48.8h20.9c4.4,0,8.3,0.7,11.3,2.1c2.9,1.3,5,3.2,6.6,5.6
			c1.6,2.5,2.3,5.4,2.3,9C945.3,636.8,944.5,639.6,943,642z"/>
		<path class="st0" d="M935.1,623.1c-2.6-2.4-6.3-3.6-11-3.6H910V647h14.1c4.7,0,8.4-1.2,11-3.6c1.9-1.7,4.2-4.9,4.2-10.1
			C939.3,628,937,624.8,935.1,623.1z M928.1,635.8c-0.6,0.6-2.1,0.9-4.1,0.9h-3.8v-7h3.8c1.9,0,3.4,0.3,4.1,0.9
			c0.2,0.2,0.8,0.8,0.8,2.6C929,635.1,928.4,635.6,928.1,635.8z"/>
		<path class="st0" d="M1022.5,615.3L1022.5,615.3c-3.3-3.3-7.2-5.8-11.7-7.6c-4.4-1.8-9.3-2.6-14.6-2.6c-5.2,0-10.1,0.9-14.5,2.6
			c-4.5,1.8-8.5,4.3-11.8,7.6c-3.3,3.2-6,7.1-7.8,11.4c-1.8,4.3-2.8,9.1-2.8,14.3c0,5.1,0.9,9.9,2.8,14.3c1.8,4.3,4.5,8.2,7.8,11.4
			c3.3,3.3,7.3,5.8,11.8,7.6c4.4,1.7,9.3,2.6,14.5,2.6c5.3,0,10.2-0.9,14.6-2.6c4.4-1.8,8.4-4.3,11.7-7.5c3.3-3.2,5.9-7.1,7.8-11.4
			c1.9-4.4,2.8-9.2,2.8-14.3c0-5.1-0.9-9.9-2.8-14.3C1028.4,622.4,1025.8,618.6,1022.5,615.3z M1020.8,651.2
			c-1.3,3.1-3.2,5.8-5.5,8.1c-2.3,2.3-5.1,4.1-8.3,5.3c-3.2,1.3-6.8,1.9-10.8,1.9c-3.9,0-7.5-0.6-10.7-1.9c-3.2-1.3-6-3.1-8.4-5.4
			c-2.4-2.3-4.2-5-5.5-8.1c-1.3-3.1-2-6.4-2-10.2c0-3.7,0.7-7.2,2-10.2c1.3-3.1,3.1-5.8,5.5-8.1c2.4-2.3,5.1-4.1,8.4-5.3
			c3.2-1.3,6.8-1.9,10.7-1.9c3.9,0,7.6,0.6,10.8,1.9c3.2,1.3,6,3.1,8.3,5.3c2.3,2.3,4.2,5.1,5.5,8.1c1.3,3.1,2,6.5,2,10.2
			C1022.8,644.7,1022.1,648.1,1020.8,651.2z"/>
		<path class="st0" d="M1011,625.2c-1.9-2-4.1-3.6-6.7-4.7c-2.5-1.1-5.2-1.6-8.1-1.6c-2.9,0-5.6,0.5-8,1.6c-2.5,1.1-4.8,2.6-6.7,4.7
			c-1.8,1.9-3.3,4.3-4.3,7c-1,2.6-1.5,5.6-1.5,8.8c0,3.2,0.5,6.1,1.5,8.7c1,2.7,2.5,5.1,4.3,7.1c1.9,2,4.1,3.6,6.7,4.6
			c2.5,1.1,5.2,1.6,8.1,1.6c2.9,0,5.6-0.5,8.1-1.6c2.6-1.1,4.8-2.6,6.7-4.7c1.8-2,3.3-4.3,4.3-7c1-2.6,1.5-5.6,1.5-8.8
			c0-3.2-0.5-6.2-1.5-8.8C1014.2,629.5,1012.8,627.1,1011,625.2z M1005.6,646.1L1005.6,646.1c-0.6,1.5-1.3,2.7-2.2,3.7
			c-0.9,1-1.9,1.7-3.1,2.2c-1.2,0.5-2.6,0.8-4.1,0.8c-1.5,0-2.8-0.3-4.1-0.8c-1.2-0.5-2.2-1.2-3.1-2.2c-0.9-1-1.7-2.2-2.2-3.7
			c-0.6-1.5-0.8-3.2-0.8-5.1c0-1.9,0.3-3.7,0.8-5.1c0.6-1.5,1.3-2.7,2.2-3.7c0.9-1,1.9-1.7,3.1-2.2c1.2-0.5,2.6-0.8,4.1-0.8
			c1.5,0,2.8,0.3,4.1,0.8c1.2,0.5,2.2,1.2,3.1,2.2c0.9,1,1.7,2.2,2.2,3.7c0.6,1.4,0.8,3.2,0.8,5.1
			C1006.5,642.9,1006.2,644.6,1005.6,646.1z"/>
		<path class="st0" d="M852.9,110l7.8,4.8V76.2h-83.6l26.8,10C820.9,92.5,837.4,100.5,852.9,110z M850.5,86.5v10.1
			c-6.3-3.6-12.8-7-19.3-10.1H850.5z"/>
		<path class="st0" d="M1044.8,86.2l26.8-10H988v38.6l7.8-4.8C1011.3,100.5,1027.8,92.5,1044.8,86.2z M998.3,86.5h19.3
			c-6.6,3.1-13,6.5-19.3,10.1V86.5z"/>
		<path class="st0" d="M705.6,108.5c52.8,0,104.9,17.6,146.9,49.6l8.3,6.3v-40.2l-2.3-1.5c-45.3-30.4-98.1-46.4-152.9-46.4
			c-54.7,0-107.6,16.1-152.9,46.4l-2.3,1.5v40.2l8.3-6.3C600.6,126.1,652.8,108.5,705.6,108.5z M560.7,129.7
			c43.1-28.3,93.1-43.2,144.9-43.2c51.8,0,101.8,14.9,144.9,43.2v14.1c-19.7-13.8-41.1-24.6-63.9-32.4
			c-26.1-8.8-53.3-13.3-80.9-13.3c-27.6,0-54.9,4.5-81,13.3c-22.8,7.7-44.2,18.6-63.9,32.4V129.7z"/>
		<path class="st0" d="M607.2,86.2l26.8-10h-83.6v38.6l7.8-4.8C573.7,100.5,590.2,92.5,607.2,86.2z M560.7,86.5H580
			c-6.6,3.1-13,6.5-19.3,10.1V86.5z"/>
		<path class="st0" d="M705.6,148.3c56,0,107.9,22.2,146.3,62.4l8.9,9.3v-45.3l-1.8-1.5c-42.6-36.8-97.1-57-153.4-57
			c-56.3,0-110.8,20.3-153.4,57l-1.8,1.5V220l8.9-9.3C597.7,170.5,649.6,148.3,705.6,148.3z M560.7,179.4
			c40.5-34.2,91.8-53,144.9-53c53,0,104.4,18.8,144.9,53v15.4c-39.3-36.7-90.3-56.8-144.9-56.8c-54.6,0-105.6,20.1-144.9,56.8V179.4
			z"/>
		<path class="st0" d="M348.9,111.5c-26.1-8.8-53.3-13.3-81-13.3l-0.4,0c-0.1,0-0.2,0-0.2,0c-0.2,0-0.4,0-0.6,0
			c-7.7,0.5-13.6,7.3-13.1,15.1c0.3,4,2.3,7.7,5.4,10.2c1.1,0.9,2.4,1.5,3.7,2v0.9h5.1c53,0,104.4,18.8,144.9,53v15.4
			C373.6,158.1,322.6,138,268,138c-7.8,0-14.1,6.3-14.1,14.1c0,7.8,6.3,14.1,14.1,14.1c56.9,0,109.6,25.5,144.9,70.1v30.2
			c0,7.8,6.3,14.1,14.1,14.1c7.8,0,14.1-6.3,14.1-14.1V122.4c0-0.1,0-0.1,0-0.2V86.5h11.7v229.9c0,7.8,6.3,14.1,14.1,14.1
			c7.8,0,14.1-6.3,14.1-14.1V86.5h11.7v274c0,7.8,6.3,14.1,14.1,14.1c7.8,0,14.1-6.3,14.1-14.1v-274h11.7l0,35.6c0,0.1,0,0.3,0,0.4
			v288.4c0,7.8,6.3,14.1,14.1,14.1c7.8,0,14.1-6.3,14.1-14.1V236.4c35.3-44.6,88-70.1,144.9-70.1c56.9,0,109.6,25.5,144.9,70.1
			v174.5c0,7.8,6.3,14.1,14.1,14.1c7.8,0,14.1-6.3,14.1-14.1V122.5c0-0.1,0-0.2,0-0.3V86.5h11.7v268.3c0,7.8,6.3,14.1,14.1,14.1
			c7.8,0,14.1-6.3,14.1-14.1V86.5h11.7v229.9c0,7.8,6.3,14.1,14.1,14.1c7.8,0,14.1-6.3,14.1-14.1V86.5h11.7l0,35.6
			c0,0.1,0,0.3,0,0.4v144.1c0,7.8,6.3,14.1,14.1,14.1c7.8,0,14.1-6.3,14.1-14.1v-30.2c35.3-44.6,88-70.1,144.9-70.1
			c7.8,0,14.1-6.3,14.1-14.1c0-7.8-6.3-14.1-14.1-14.1c-54.6,0-105.6,20.1-144.9,56.8v-15.4c40.5-34.2,91.8-53,144.9-53
			c7.8,0,14.1-6.3,14.1-14.1c0-7.8-6.3-14.1-14.1-14.1c-27.6,0-54.9,4.5-81,13.3c-22.8,7.7-44.2,18.6-63.9,32.3v-14.1
			c43.1-28.3,93.1-43.2,144.9-43.2c7.8,0,14.1-6.3,14.1-14.1c0-4.4-2-8.4-5.4-11.1c-2.5-2-5.5-3-8.7-3l-159,0c-0.1,0-0.2,0-0.2,0
			l-477.3,0c-0.1,0-0.2,0-0.2,0l-79.5,0c-0.1,0-0.2,0-0.2,0H268c-7.8,0-14.1,6.3-14.1,14.1c0,4.7,2.3,9.1,6.3,11.7
			c2.3,1.6,5,2.4,7.8,2.4c51.8,0,101.8,14.9,144.9,43.2v14.1C393.2,130,371.7,119.2,348.9,111.5z M420.9,122.7
			C375.6,92.3,322.7,76.2,268,76.2c-0.8,0-1.5-0.2-2.1-0.6c-1.1-0.7-1.7-1.9-1.7-3.2c0-2.1,1.7-3.8,3.8-3.8h158.9c0,0,0,0,0,0h79.7
			c0,0,0,0,0,0h477.5c0,0,0,0,0,0h159.1c1.1,0,1.9,0.4,2.3,0.8c0.9,0.7,1.5,1.8,1.5,3c0,2.1-1.7,3.8-3.8,3.8
			c-54.7,0-107.6,16.1-152.9,46.4l-2.3,1.5v40.2l8.3-6.3c42-32,94.1-49.6,146.9-49.6c2.1,0,3.8,1.7,3.8,3.8c0,2.1-1.7,3.8-3.8,3.8
			c-56.3,0-110.8,20.3-153.4,57l-1.8,1.5V220l8.9-9.3c38.4-40.2,90.3-62.4,146.3-62.4c2.1,0,3.8,1.7,3.8,3.8c0,2.1-1.7,3.8-3.8,3.8
			c-60.7,0-116.9,27.5-154.1,75.5l-1.1,1.4v33.7c0,2.1-1.7,3.8-3.8,3.8c-2.1,0-3.8-1.7-3.8-3.8V76.2h-32.3v240.2
			c0,2.1-1.7,3.8-3.8,3.8c-2.1,0-3.8-1.7-3.8-3.8V76.2h-32.3v278.6c0,2.1-1.7,3.8-3.8,3.8c-2.1,0-3.8-1.7-3.8-3.8V76.2h-32.3v334.6
			c0,2.1-1.7,3.8-3.8,3.8c-2.1,0-3.8-1.7-3.8-3.8v-178l-1.1-1.4c-37.2-48-93.4-75.5-154.1-75.5c-60.7,0-116.9,27.5-154.1,75.5
			l-1.1,1.4v178c0,2.1-1.7,3.8-3.8,3.8c-2.1,0-3.8-1.7-3.8-3.8V76.2h-32.3v284.3c0,2.1-1.7,3.8-3.8,3.8c-2.1,0-3.8-1.7-3.8-3.8V76.2
			h-32.3v240.2c0,2.1-1.7,3.8-3.8,3.8c-2.1,0-3.8-1.7-3.8-3.8V76.2h-32.3v190.4c0,2.1-1.7,3.8-3.8,3.8c-2.1,0-3.8-1.7-3.8-3.8v-33.7
			l-1.1-1.4c-37.2-48-93.4-75.5-154.1-75.5c-2.1,0-3.8-1.7-3.8-3.8c0-2.1,1.7-3.8,3.8-3.8c56,0,107.9,22.2,146.3,62.4l8.9,9.3v-45.3
			l-1.8-1.5c-41.3-35.7-93.8-55.8-148.2-57V116l-5.3,0.1c-0.9,0-1.7-0.2-2.4-0.8c-0.9-0.7-1.4-1.7-1.5-2.7c-0.1-2.1,1.4-3.9,3.6-4.1
			c0.1,0,0.2,0,0.2,0c0.1,0,0.2,0,0.4,0c52.7,0,104.8,17.6,146.7,49.6l8.3,6.3v-40.2L420.9,122.7z"/>
		<path class="st0" d="M423.2,76.2h-83.6l26.8,10c17,6.3,33.5,14.3,49,23.8l7.8,4.8V76.2z M412.9,96.6c-6.3-3.6-12.8-7-19.3-10.1
			h19.3V96.6z"/>
		<path class="st0" d="M265,469.5c-21.5,0-37.1,16.9-37.1,40.2c0,23.3,15.6,40.2,37.1,40.2c21.5,0,37.1-16.9,37.1-40.2
			C302.1,486.4,286.5,469.5,265,469.5z M265,539.5c-15.8,0-26.8-12.3-26.8-29.9c0-17.6,11-29.9,26.8-29.9
			c15.8,0,26.8,12.3,26.8,29.9C291.8,527.3,280.8,539.5,265,539.5z"/>
		<path class="st0" d="M605.9,470.5h-23.8v46.2h23.8c16.3,0,26-8.6,26-23C631.9,479.2,622.2,470.5,605.9,470.5z M605.9,506.4h-13.5
			v-25.6h13.5c14,0,15.7,7.4,15.7,12.9C621.6,499.2,619.9,506.4,605.9,506.4z"/>
		<path class="st0" d="M876.6,526.7h45.5l-22.7-58.6L876.6,526.7z M891.6,516.4l7.7-19.9l7.7,19.9H891.6z"/>
		<path class="st0" d="M1021.7,470.5h-23.8v46.2h23.8c16.3,0,26-8.6,26-23C1047.6,479.2,1037.9,470.5,1021.7,470.5z M1021.7,506.4
			h-13.5v-25.6h13.5c14,0,15.7,7.4,15.7,12.9C1037.3,499.2,1035.7,506.4,1021.7,506.4z"/>
		<path class="st0" d="M1146,469.5c-21.5,0-37.1,16.9-37.1,40.2c0,23.3,15.6,40.2,37.1,40.2c21.5,0,37.1-16.9,37.1-40.2
			C1183.1,486.4,1167.5,469.5,1146,469.5z M1146,539.5c-15.8,0-26.8-12.3-26.8-29.9c0-17.6,11-29.9,26.8-29.9
			c15.8,0,26.8,12.3,26.8,29.9C1172.8,527.3,1161.8,539.5,1146,539.5z"/>
		<path class="st0" d="M1196.7,460.3c-13-12.6-31-19.5-50.7-19.5c-19.7,0-37.7,6.9-50.7,19.5c-6.5,6.3-11.5,13.8-15,22.1
			c-2.1-10.3-7.1-19.1-14.9-25.8c-10.2-8.8-24.7-13.4-41.8-13.4h-59.3v105l-44.9-105h-39.8l-15.8,37v-37l-127.9,0
			c7.4-3.8,12.4-11.4,12.4-20.2v-13.4h-42.6c-14.4,0-26.1,11.7-26.1,26.1v7.5l-18.3,0v29.2c-2.7-6.1-6.6-11.4-11.7-15.8
			c-10.2-8.8-24.7-13.4-41.8-13.4h-57.4v0H447.4v0h-39.3v72.1c0,21.5-9.2,24.3-17.2,24.3c-8.1,0-17.3-2.8-17.3-24.3v-72.1h-43.8
			v37.2c-3.4-7.5-8.1-14.4-14.1-20.2c-13-12.6-31-19.5-50.7-19.5c-19.7,0-37.7,6.9-50.7,19.5c-13.1,12.7-20.3,30.2-20.3,49.4
			c0,18,6.4,34.8,18.1,47.2c10.6,11.3,25.2,18.6,41.5,20.9c1.5,13.1,12.7,23.3,26.2,23.3h56.1v-13.5c0-12.6-10.3-22.9-22.9-22.9h-4
			c5.4-4,10.2-8.8,14.1-14.3c3.6-4.9,6.4-10.3,8.5-16c6.1,28,27.2,44.2,58.9,44.2c28.7,0,48.7-13.3,56.8-36.6v34.1h101.3v0h43.8
			v-32.6h10.3l21.5,32.6h48.2l0,0h94.3V539h-61.9v-12.1h52.6v-36.2h-52.6V481h79.1v95.1h39.1l0,0h45.5l9.3-23.8h43l9.3,23.8h46.2
			l0,0h31.9v-32.6h10.3l21.5,32.6h48.2l-27.8-42c6.5-4.2,11.5-9.6,15.1-16c1.8,15.8,8.7,30.1,19.8,40.9c13,12.6,31,19.5,50.7,19.5
			c19.7,0,37.7-6.9,50.7-19.5c13.1-12.7,20.3-30.2,20.3-49.4C1216.9,490.5,1209.8,472.9,1196.7,460.3z M705.9,419.8h32.3v3.1
			c0,6.8-5.6,12.4-12.4,12.4h-35.7C690.2,426.8,697.3,419.8,705.9,419.8z M313,575c6.9,0,12.6,5.6,12.6,12.6v3.2h-45.8
			c-8.8,0-15.9-7.1-16-15.8H313z M286.3,564.9l-22.5,7.5v-4L259,568c-32.2-2.6-54.7-26.7-54.7-58.4c0-34,25.5-58.6,60.7-58.6
			c35.1,0,60.7,24.7,60.7,58.6C325.6,535.7,310.6,556.9,286.3,564.9z M441.1,516.3c0,33.5-17.9,52-50.5,52
			c-32.6,0-50.5-18.5-50.5-52v-62.8h23.2v61.8c0,28.6,15,34.6,27.6,34.6c12.5,0,27.5-6,27.5-34.6v-61.8h22.7V516.3z M542.5,565.8
			h-84.8V453.5h82.6V470h-59.7v31h52.6v15.6h-52.6v32.7h61.9V565.8z M490.8,539v-12.1h52.6v-36.2h-52.6v-10.4h57.8V539H490.8z
			 M629.8,565.8l-21.5-32.6h-26.2v32.6H559V453.5h49c29.7,0,47.5,15,47.5,40.2c0,15.7-7,27.5-20.3,34.1l-5.2,2.6l23.5,35.4H629.8z
			 M644.7,534.2c7.6-4.9,13.2-11.5,16.7-19.3v44.6L644.7,534.2z M817.4,565.8h-23.2v-95.1h-99.7V501h52.6v15.6h-52.6v32.7h61.9v16.5
			h-84.8V453.5h82.6v0h99.3v17.2h-36.2V565.8z M827.7,481h35.9l-35.9,84.2V481z M937.2,565.8l-9.3-23.8h-57.1l-9.3,23.8h-22.9
			l47.9-112.3h26.2l48,112.3H937.2z M1050.8,527.8l-5.2,2.6l23.5,35.4h-23.5l-21.5-32.6h-26.2v32.6h-23.2V453.5h49
			c29.7,0,47.5,15,47.5,40.2C1071.1,509.4,1064.1,521.2,1050.8,527.8z M1146,568.3c-35.1,0-60.7-24.7-60.7-58.6
			c0-34,25.5-58.6,60.7-58.6c35.1,0,60.6,24.7,60.6,58.6C1206.6,543.6,1181.1,568.3,1146,568.3z"/>
	</g>
	<g>
		<path class="st1" d="M414.4,671.7c-4.5,0-8.7-0.8-12.5-2.2c-3.8-1.5-7.1-3.6-9.9-6.4s-5-6-6.6-9.8c-1.6-3.7-2.4-7.9-2.4-12.4
			s0.8-8.6,2.4-12.4c1.6-3.7,3.8-7,6.6-9.8c2.8-2.8,6.1-4.9,9.9-6.4c3.8-1.5,8-2.2,12.5-2.2c5.3,0,10,1,14.1,2.9
			c4.2,1.9,7.6,4.7,10.4,8.3l-10.3,9.6c-1.9-2.2-3.9-4-6.1-5.1c-2.2-1.2-4.7-1.8-7.4-1.8c-2.3,0-4.5,0.4-6.4,1.2
			c-2,0.8-3.6,1.9-5,3.4c-1.4,1.5-2.5,3.3-3.3,5.4c-0.8,2.1-1.2,4.4-1.2,6.9c0,2.5,0.4,4.8,1.2,6.9c0.8,2.1,1.9,3.9,3.3,5.4
			c1.4,1.5,3.1,2.6,5,3.4c2,0.8,4.1,1.2,6.4,1.2c2.7,0,5.2-0.6,7.4-1.8c2.2-1.2,4.2-2.9,6.1-5.1l10.3,9.6c-2.8,3.5-6.2,6.3-10.4,8.2
			C424.4,670.7,419.7,671.7,414.4,671.7"/>
		<path class="st1" d="M481.8,671.7c-4.6,0-8.8-0.8-12.6-2.3c-3.9-1.5-7.2-3.7-10.1-6.5c-2.9-2.8-5.1-6-6.6-9.8
			c-1.6-3.7-2.4-7.8-2.4-12.2c0-4.4,0.8-8.5,2.4-12.2c1.6-3.7,3.8-7,6.6-9.8c2.8-2.8,6.2-4.9,10.1-6.5c3.9-1.5,8.1-2.3,12.6-2.3
			c4.6,0,8.8,0.8,12.7,2.3c3.8,1.5,7.2,3.7,10,6.5c2.8,2.8,5,6,6.6,9.8c1.6,3.7,2.4,7.8,2.4,12.2c0,4.5-0.8,8.5-2.4,12.3
			c-1.6,3.7-3.8,7-6.6,9.8c-2.8,2.8-6.2,4.9-10,6.4C490.7,670.9,486.5,671.7,481.8,671.7 M481.8,657.9c2.2,0,4.2-0.4,6.1-1.2
			c1.9-0.8,3.5-1.9,4.9-3.4c1.4-1.5,2.5-3.3,3.3-5.4c0.8-2.1,1.2-4.4,1.2-6.9c0-2.6-0.4-4.9-1.2-7c-0.8-2-1.9-3.8-3.3-5.3
			c-1.4-1.5-3-2.6-4.9-3.4c-1.9-0.8-3.9-1.2-6.1-1.2c-2.2,0-4.2,0.4-6.1,1.2c-1.9,0.8-3.5,1.9-4.9,3.4c-1.4,1.5-2.5,3.3-3.3,5.3
			c-0.8,2.1-1.2,4.4-1.2,7c0,2.5,0.4,4.8,1.2,6.9c0.8,2.1,1.9,3.9,3.3,5.4s3,2.6,4.9,3.4C477.6,657.5,479.7,657.9,481.8,657.9"/>
		<polygon class="st1" points="530.2,670.5 530.2,611.4 543.5,611.4 574.9,650.8 568.7,650.8 568.7,611.4 584.5,611.4 584.5,670.5 
			571.2,670.5 539.7,631.2 546,631.2 546,670.5 		"/>
		<path class="st1" d="M652,670.5h-16.1v-59.1h44.7v12.9H652V670.5z M650.9,637.3h26.3v12.9h-26.3V637.3z"/>
		<path class="st1" d="M722.7,671.7c-8.4,0-15-2.4-19.7-7.2c-4.7-4.8-7.1-11.6-7.1-20.3v-32.8h16.1v32.3c0,5.1,1,8.7,2.9,10.9
			c1.9,2.2,4.6,3.3,8,3.3c3.4,0,6-1.1,7.9-3.3c1.9-2.2,2.8-5.8,2.8-10.9v-32.3h15.9v32.8c0,8.8-2.4,15.6-7.1,20.3
			C737.7,669.3,731.1,671.7,722.7,671.7"/>
		<polygon class="st1" points="779.9,670.5 779.9,624.7 762.3,624.7 762.3,611.4 813.5,611.4 813.5,624.7 796,624.7 796,670.5 		"/>
		<path class="st1" d="M853.1,671.7c-8.4,0-15-2.4-19.7-7.2c-4.7-4.8-7.1-11.6-7.1-20.3v-32.8h16.1v32.3c0,5.1,1,8.7,2.9,10.9
			c1.9,2.2,4.6,3.3,8,3.3c3.4,0,6-1.1,7.9-3.3c1.9-2.2,2.8-5.8,2.8-10.9v-32.3h15.9v32.8c0,8.8-2.4,15.6-7.1,20.3
			C868.1,669.3,861.5,671.7,853.1,671.7"/>
		<path class="st1" d="M899,670.5v-59.1h26.1c5.2,0,9.7,0.9,13.5,2.6c3.8,1.7,6.7,4.3,8.8,7.6c2.1,3.3,3.1,7.2,3.1,11.7
			c0,4.4-1,8.3-3.1,11.5c-2.1,3.2-5,5.7-8.8,7.4c-3.8,1.7-8.3,2.6-13.5,2.6h-17.1l7.2-7v22.7H899z M915.1,649.6l-7.2-7.7h16.1
			c3.4,0,5.9-0.8,7.5-2.3c1.7-1.5,2.5-3.6,2.5-6.3c0-2.8-0.8-4.9-2.5-6.4c-1.7-1.5-4.2-2.3-7.5-2.3h-16.1l7.2-7.7V649.6z
			 M934.3,670.5L920.1,649h17.2l14.3,21.5H934.3z"/>
		<path class="st1" d="M996.2,671.7c-4.6,0-8.8-0.8-12.6-2.3c-3.9-1.5-7.2-3.7-10.1-6.5c-2.9-2.8-5.1-6-6.6-9.8
			c-1.6-3.7-2.4-7.8-2.4-12.2c0-4.4,0.8-8.5,2.4-12.2c1.6-3.7,3.8-7,6.6-9.8c2.8-2.8,6.2-4.9,10.1-6.5c3.9-1.5,8.1-2.3,12.6-2.3
			c4.6,0,8.8,0.8,12.7,2.3c3.8,1.5,7.2,3.7,10,6.5c2.8,2.8,5,6,6.6,9.8c1.6,3.7,2.4,7.8,2.4,12.2c0,4.5-0.8,8.5-2.4,12.3
			c-1.6,3.7-3.8,7-6.6,9.8c-2.8,2.8-6.2,4.9-10,6.4C1005.1,670.9,1000.8,671.7,996.2,671.7 M996.2,657.9c2.2,0,4.2-0.4,6.1-1.2
			c1.9-0.8,3.5-1.9,4.9-3.4c1.4-1.5,2.5-3.3,3.3-5.4c0.8-2.1,1.2-4.4,1.2-6.9c0-2.6-0.4-4.9-1.2-7c-0.8-2-1.9-3.8-3.3-5.3
			c-1.4-1.5-3-2.6-4.9-3.4c-1.9-0.8-3.9-1.2-6.1-1.2c-2.2,0-4.2,0.4-6.1,1.2c-1.9,0.8-3.5,1.9-4.9,3.4c-1.4,1.5-2.5,3.3-3.3,5.3
			c-0.8,2.1-1.2,4.4-1.2,7c0,2.5,0.4,4.8,1.2,6.9c0.8,2.1,1.9,3.9,3.3,5.4c1.4,1.5,3,2.6,4.9,3.4C992,657.5,994.1,657.9,996.2,657.9
			"/>
		<path class="st2" d="M432.9,166.3c-45.4-40.6-104-63-164.9-63c-0.3,0-0.6,0-0.8,0c-4.9,0.3-8.6,4.6-8.3,9.6c0.2,2.7,1.5,5,3.5,6.5
			c1.6,1.2,3.6,1.9,5.7,1.8v0c56.5,0,110.9,20.7,153,58.4c1.7,1.5,3.8,2.3,6,2.3c2.5,0,4.9-1,6.7-3
			C437,175.2,436.6,169.6,432.9,166.3"/>
		<path class="st3" d="M427,240.5c-2.7,0-5.4-1.2-7.2-3.6c-36.3-48.2-91.6-75.8-151.8-75.8c-5,0-9-4-9-9c0-4.9,4-9,9-9
			c65.9,0,126.5,30.2,166.1,83c3,4,2.2,9.6-1.8,12.6C430.7,239.9,428.9,240.5,427,240.5"/>
		<path class="st1" d="M427,131.2c-1.8,0-3.6-0.5-5.1-1.6C376.6,98,323.3,81.4,268,81.4c-4.9,0-9-4-9-9c0-4.9,4-9,9-9
			c59,0,115.8,17.8,164.1,51.4c4.1,2.8,5.1,8.4,2.2,12.5C432.6,129.8,429.8,131.2,427,131.2"/>
		<path class="st3" d="M427,275.5c-4.9,0-9-4-9-9V72.4c0-4.9,4-9,9-9c4.9,0,9,4,9,9v194.2C435.9,271.5,431.9,275.5,427,275.5"/>
		<path class="st1" d="M864.6,131.2c-1.8,0-3.6-0.5-5.1-1.6C814.1,98,760.9,81.4,705.6,81.4c-55.4,0-108.6,16.7-153.9,48.2
			c-4.1,2.8-9.6,1.8-12.5-2.2c-2.8-4.1-1.8-9.6,2.2-12.5c48.3-33.6,105.1-51.4,164.1-51.4c59,0,115.8,17.8,164.1,51.4
			c4.1,2.8,5.1,8.4,2.2,12.5C870.2,129.8,867.4,131.2,864.6,131.2"/>
		<path class="st3" d="M864.6,240.5c-2.7,0-5.4-1.2-7.2-3.6c-36.3-48.2-91.6-75.8-151.8-75.8c-60.2,0-115.6,27.6-151.8,75.8
			c-3,4-8.6,4.8-12.6,1.8c-3.9-3-4.7-8.6-1.8-12.6c39.7-52.7,100.2-83,166.1-83c65.9,0,126.5,30.2,166.1,83c3,4,2.2,9.6-1.8,12.6
			C868.3,239.9,866.4,240.5,864.6,240.5"/>
		<path class="st2" d="M864.6,181.9c-2.1,0-4.3-0.8-6-2.3c-42.1-37.7-96.5-58.4-153-58.4c-56.5,0-110.9,20.7-153,58.4
			c-3.7,3.3-9.3,3-12.7-0.7c-3.3-3.7-3-9.4,0.7-12.7c45.4-40.6,104-63,165-63c60.9,0,119.5,22.4,164.9,63c3.7,3.3,4,9,0.7,12.7
			C869.5,180.9,867,181.9,864.6,181.9"/>
		<path class="st1" d="M984.2,131.2c-2.8,0-5.6-1.3-7.4-3.8c-2.8-4.1-1.8-9.6,2.2-12.5c48.3-33.6,105-51.4,164.1-51.4c4.9,0,9,4,9,9
			c0,4.9-4,9-9,9c-55.4,0-108.6,16.7-153.9,48.2C987.8,130.6,986,131.2,984.2,131.2"/>
		<path class="st3" d="M984.2,240.5c-1.9,0-3.8-0.6-5.4-1.8c-4-3-4.8-8.6-1.8-12.6c39.7-52.7,100.2-83,166.1-83c4.9,0,9,4,9,9
			s-4,9-9,9c-60.2,0-115.6,27.6-151.8,75.8C989.6,239.3,986.9,240.5,984.2,240.5"/>
		<path class="st2" d="M984.2,181.9c-2.5,0-4.9-1-6.7-3c-3.3-3.7-3-9.4,0.7-12.7c45.4-40.6,104-63,164.9-63c4.9,0,9,4,9,9
			c0,5-4,9-9,9c-56.5,0-110.9,20.7-153,58.4C988.5,181.2,986.3,181.9,984.2,181.9"/>
		<path class="st2" d="M944.3,325.4c-4.9,0-9-4-9-9v-244c0-5,4-9,9-9c4.9,0,9,4,9,9v244C953.3,321.4,949.3,325.4,944.3,325.4"/>
		<path class="st1" d="M904.4,363.8c-4.9,0-9-4-9-9V72.4c0-5,4-9,9-9c4.9,0,9,4,9,9v282.4C913.4,359.8,909.4,363.8,904.4,363.8"/>
		<path class="st4" d="M864.6,419.8c-4.9,0-9-4-9-9V72.4c0-4.9,4-9,9-9c4.9,0,9,4,9,9v338.5C873.5,415.8,869.5,419.8,864.6,419.8"/>
		<path class="st4" d="M546.6,419.8c-4.9,0-9-4-9-9V72.4c0-4.9,4-9,9-9c4.9,0,9,4,9,9v338.5C555.6,415.8,551.6,419.8,546.6,419.8"/>
		<path class="st1" d="M506.7,369.5c-4.9,0-9-4-9-9V72.4c0-4.9,4-9,9-9c4.9,0,9,4,9,9v288.1C515.7,365.5,511.7,369.5,506.7,369.5"/>
		<path class="st2" d="M466.8,325.4c-4.9,0-9-4-9-9v-244c0-5,4-9,9-9c4.9,0,9,4,9,9v244C475.8,321.4,471.8,325.4,466.8,325.4"/>
		<path class="st3" d="M984.2,275.5c-4.9,0-9-4-9-9V72.4c0-4.9,4-9,9-9c4.9,0,9,4,9,9v194.2C993.2,271.5,989.1,275.5,984.2,275.5"/>
		<path class="st4" d="M1143.2,81.4H268c-5,0-9-4-9-9c0-5,4-9,9-9h875.2c4.9,0,9,4,9,9C1152.1,77.3,1148.1,81.4,1143.2,81.4"/>
		<path class="st1" d="M743.3,423c0,9.7-7.9,17.6-17.5,17.6h-40.9v-4.8c0-11.6,9.4-21,21-21h37.4V423z"/>
		<path class="st4" d="M199.2,509.7c0-36.8,27.9-63.8,65.8-63.8c37.9,0,65.8,27,65.8,63.8c0,36.8-27.9,63.8-65.8,63.8
			C227.1,573.4,199.2,546.4,199.2,509.7 M296.9,509.7c0-21.2-14-35-32-35c-17.9,0-32,13.8-32,35c0,21.2,14,35,32,35
			C282.9,544.7,296.9,530.9,296.9,509.7"/>
		<path class="st4" d="M334.9,516.3v-68h33.5v66.9c0,21,8.5,29.4,22.5,29.4c13.9,0,22.3-8.4,22.3-29.4v-66.9h33v68
			c0,36.6-20.6,57.1-55.7,57.1C355.6,573.4,334.9,552.9,334.9,516.3"/>
		<polygon class="st4" points="547.6,544.2 547.6,571 452.6,571 452.6,448.3 545.4,448.3 545.4,475.1 485.7,475.1 485.7,495.8 
			538.3,495.8 538.3,521.8 485.7,521.8 485.7,544.2 		"/>
		<path class="st4" d="M605.6,538.4h-18.3V571h-33.5V448.3h54.1c32.3,0,52.6,17.3,52.6,45.4c0,18-8.5,31.4-23.2,38.7l25.5,38.5
			h-35.9L605.6,538.4z M605.9,475.7h-18.6v35.9h18.6c13.9,0,20.8-6.7,20.8-17.9C626.7,482.3,619.8,475.7,605.9,475.7"/>
		<polygon class="st4" points="761.6,544.2 761.6,571 666.6,571 666.6,448.3 759.4,448.3 759.4,475.1 699.7,475.1 699.7,495.8 
			752.3,495.8 752.3,521.8 699.7,521.8 699.7,544.2 		"/>
		<polygon class="st4" points="789.1,475.8 678.5,475.8 678.5,448.3 858.8,448.3 858.8,475.8 822.6,475.8 822.6,571 789.1,571 		"/>
		<path class="st4" d="M924.4,547.1h-50.1L865,571h-34.2l52.3-122.6h33L968.5,571h-34.8L924.4,547.1z M914.6,521.6l-15.2-39.2
			l-15.2,39.2H914.6z"/>
		<path class="st4" d="M1021.3,538.4h-18.3V571h-33.5V448.3h54.1c32.3,0,52.6,17.3,52.6,45.4c0,18-8.5,31.4-23.2,38.7l25.5,38.5
			h-35.9L1021.3,538.4z M1021.7,475.7h-18.6v35.9h18.6c13.9,0,20.8-6.7,20.8-17.9C1042.5,482.3,1035.5,475.7,1021.7,475.7"/>
		<path class="st4" d="M1080.2,509.7c0-36.8,27.9-63.8,65.8-63.8c37.9,0,65.8,27,65.8,63.8c0,36.8-27.9,63.8-65.8,63.8
			C1108.1,573.4,1080.2,546.4,1080.2,509.7 M1178,509.7c0-21.2-14-35-32-35c-17.9,0-32,13.8-32,35c0,21.2,14,35,32,35
			C1163.9,544.7,1178,530.9,1178,509.7"/>
		<path class="st1" d="M330.8,587.6c0-9.8-7.9-17.7-17.7-17.7h-54.4v4.9c0,11.7,9.5,21.2,21.2,21.2h51V587.6z"/>
	</g>
</g>
</svg>
