<?xml version="1.0" encoding="UTF-8"?>
<svg id="Capa_2" data-name="Capa 2" xmlns="http://www.w3.org/2000/svg" xmlns:xlink="http://www.w3.org/1999/xlink" viewBox="0 0 7680 1080">
  <defs>
    <style>
      .cls-1 {
        fill: #000830;
      }

      .cls-2 {
        fill: #081335;
      }

      .cls-3 {
        clip-path: url(#clippath);
      }

      .cls-4 {
        fill: none;
      }
    </style>
    <clipPath id="clippath">
      <rect class="cls-4" width="7680" height="1080"/>
    </clipPath>
  </defs>
  <g id="Capa_1-2" data-name="Capa 1">
    <g class="cls-3">
      <rect class="cls-1" width="7680" height="1080"/>
      <path class="cls-2" d="m-62.5,1193.87c117.39-188.1,276.34-367.3,471.56-532.75,27.34-23.17,67.76-67.78,124.21-56.97,57.98,11.11,98.98,50.24,129.74,78.43,91.78,84.12,191.32,164.98,300.73,241.89,54.7,38.45,111.71,75.83,170.91,112.03,58.33,35.66,117.46,74.51,188.53,102.02,153.19,59.29,334.71,8.09,434.63-67.51,51.27-38.79,87.18-83.08,128.22-125.46,40.11-41.42,82.88-81.98,128.13-121.62,91.83-80.44,194.16-156.68,306.3-228.14,54.68-34.84,111.13-69.08,170.84-101.12,52.47-28.16,114.27-57.69,187.59-64.43,79.89-7.34,165.6,17.33,237.58,34.08,73.62,17.13,145.77,36.4,216.84,56.75,292.12,83.63,563.86,188.11,837.12,290.01,274.9,102.51,553.77,203.66,855.67,278.28,170.41,42.13,349.55,76.23,537.13,57.84,143.5-14.07,272.96-62.12,372.57-121.6,102.66-61.3,169.86-133.12,232.81-209.1,24.75-29.88,54.28-68.06,109.23-83.09,65.56-17.94,144.23,6.62,202.14,24.18,297.81,90.3,575.76,202.74,825.05,332.63,61.15,31.86,120.53,64.79,178.34,98.64,67.46,39.49,173.14-21.18,105.71-60.66-243.19-142.36-516.97-267.87-813.05-372.2-72.2-25.44-145.69-49.77-220.61-72.49-83.04-25.18-173.82-47.95-269.78-39.73-163.74,14.02-222.35,104.47-286.49,179.16-61.1,71.14-144.56,139.98-257.37,187.22-129.63,54.28-279.11,68.03-434.38,46.11-165.5-23.37-322.64-69.18-472.43-114.83-146.85-44.75-289.08-94.29-429.39-145.43-280.9-102.38-554.72-211.61-846.58-303.73-148.87-46.99-302.52-89.31-461.46-123.91-88.18-19.2-180.14-32.09-273.95-18.74-83.91,11.94-156.31,42.23-219.73,74.77-124.85,64.06-236.93,138.29-340,213.85-108.47,79.52-207.5,163.04-294.17,250.96-64.39,65.32-132.47,181.47-287.04,189.46-75.5,3.9-130.11-36.61-177.71-64.3-62.31-36.25-122.35-73.77-180.04-112.46-114.16-76.56-218.1-157.93-311.72-243.17-75.78-69-189.55-167.01-357.6-137.05-86.27,15.38-135.65,62-183.16,102.55-50.08,42.73-97.75,86.4-142.93,130.89-89.25,87.89-168.76,178.98-238.13,272.59-35.03,47.26-67.86,95-98.04,143.36-13.61,21.81,15.37,46.95,52.21,52.76,41.44,6.53,78.29-8.07,91.95-29.96h0Z"/>
    </g>
  </g>
</svg>